<svg xmlns="http://www.w3.org/2000/svg" xmlns:xlink="http://www.w3.org/1999/xlink" viewBox="0 0 364.81 230.02"><defs><style>.cls-1{isolation:isolate;}.cls-2{opacity:0.5;mix-blend-mode:multiply;fill:url(#radial-gradient);}.cls-3{fill:url(#linear-gradient);}.cls-4{fill:url(#linear-gradient-2);}.cls-5{fill:url(#linear-gradient-3);}.cls-6{fill:url(#linear-gradient-4);}.cls-7{fill:#00629b;}.cls-8{fill:#414042;}.cls-9{fill:#78be20;}.cls-10{fill:url(#linear-gradient-5);}.cls-11{fill:url(#linear-gradient-6);}.cls-12{fill:url(#linear-gradient-7);}.cls-13{fill:url(#linear-gradient-8);}.cls-14{fill:url(#linear-gradient-9);}.cls-15{fill:none;}.cls-16{fill:url(#linear-gradient-10);}.cls-17{fill:url(#linear-gradient-11);}.cls-18{fill:url(#linear-gradient-12);}.cls-19{fill:url(#linear-gradient-13);}.cls-20{fill:url(#linear-gradient-14);}</style><radialGradient id="radial-gradient" cx="-263.05" cy="-898.31" r="24.09" gradientTransform="translate(1412.7 577.88) scale(4.39 0.49)" gradientUnits="userSpaceOnUse"><stop offset="0" stop-color="#181818"/><stop offset="0.14" stop-color="#717171"/><stop offset="0.31" stop-color="#9c9c9c" stop-opacity="0.7"/><stop offset="0.5" stop-color="#c7c7c7" stop-opacity="0.39"/><stop offset="0.69" stop-color="#e6e6e6" stop-opacity="0.18"/><stop offset="0.86" stop-color="#f9f9f9" stop-opacity="0.05"/><stop offset="1" stop-color="#fff" stop-opacity="0"/></radialGradient><linearGradient id="linear-gradient" x1="196.22" y1="62.9" x2="315.07" y2="62.9" gradientUnits="userSpaceOnUse"><stop offset="0" stop-color="#78be20"/><stop offset="0.06" stop-color="#5fab3a"/><stop offset="0.17" stop-color="#3d915d"/><stop offset="0.27" stop-color="#227c78"/><stop offset="0.37" stop-color="#0f6e8c"/><stop offset="0.48" stop-color="#046597"/><stop offset="0.59" stop-color="#00629b"/><stop offset="1" stop-color="#00629b"/></linearGradient><linearGradient id="linear-gradient-2" x1="153.77" y1="60.21" x2="260.11" y2="60.21" gradientUnits="userSpaceOnUse"><stop offset="0.17" stop-color="#00629b" stop-opacity="0"/><stop offset="0.19" stop-color="#00629b" stop-opacity="0.06"/><stop offset="0.26" stop-color="#00629b" stop-opacity="0.32"/><stop offset="0.33" stop-color="#00629b" stop-opacity="0.53"/><stop offset="0.4" stop-color="#00629b" stop-opacity="0.68"/><stop offset="0.46" stop-color="#00629b" stop-opacity="0.77"/><stop offset="0.52" stop-color="#00629b" stop-opacity="0.8"/><stop offset="0.64" stop-color="#00629b" stop-opacity="0.88"/><stop offset="0.83" stop-color="#00629b" stop-opacity="0.97"/><stop offset="1" stop-color="#00629b"/></linearGradient><linearGradient id="linear-gradient-3" x1="206.14" y1="64.78" x2="313.98" y2="64.78" gradientUnits="userSpaceOnUse"><stop offset="0" stop-color="#00629b"/><stop offset="1" stop-color="#78be20"/></linearGradient><linearGradient id="linear-gradient-4" x1="228.09" y1="44.47" x2="323.41" y2="44.47" xlink:href="#linear-gradient-3"/><linearGradient id="linear-gradient-5" x1="166.02" y1="103.82" x2="318.57" y2="103.82" gradientUnits="userSpaceOnUse"><stop offset="0" stop-color="#00629b" stop-opacity="0"/><stop offset="0.13" stop-color="#00629b" stop-opacity="0.07"/><stop offset="0.35" stop-color="#00629b" stop-opacity="0.27"/><stop offset="0.65" stop-color="#00629b" stop-opacity="0.58"/><stop offset="1" stop-color="#00629b"/></linearGradient><linearGradient id="linear-gradient-6" x1="220.18" y1="79.48" x2="347.75" y2="79.48" gradientUnits="userSpaceOnUse"><stop offset="0" stop-color="#78be20"/><stop offset="1" stop-color="#ddddde" stop-opacity="0.1"/></linearGradient><linearGradient id="linear-gradient-7" x1="347.25" y1="242.34" x2="437.08" y2="244.32" gradientTransform="matrix(1.1, 0.19, 0.19, 1.19, -261.51, -327.27)" gradientUnits="userSpaceOnUse"><stop offset="0.39" stop-color="#00629b"/><stop offset="0.84" stop-color="#c8c9ca"/><stop offset="1" stop-color="#c8c9ca"/></linearGradient><linearGradient id="linear-gradient-8" x1="246.43" y1="108.09" x2="248.59" y2="82.98" gradientUnits="userSpaceOnUse"><stop offset="0" stop-color="#509f48"/><stop offset="0.11" stop-color="#5aa73e"/><stop offset="0.37" stop-color="#6bb42d"/><stop offset="0.65" stop-color="#75bc23"/><stop offset="1" stop-color="#78be20"/></linearGradient><linearGradient id="linear-gradient-9" x1="271.11" y1="110.21" x2="273.27" y2="85.1" xlink:href="#linear-gradient-8"/><linearGradient id="linear-gradient-10" x1="196.22" y1="78.43" x2="315.07" y2="78.43" xlink:href="#linear-gradient"/><linearGradient id="linear-gradient-11" x1="196.22" y1="69.81" x2="315.07" y2="69.81" xlink:href="#linear-gradient"/><linearGradient id="linear-gradient-12" x1="196.22" y1="84.76" x2="315.07" y2="84.76" xlink:href="#linear-gradient"/><linearGradient id="linear-gradient-13" x1="196.22" y1="75.33" x2="315.07" y2="75.33" xlink:href="#linear-gradient"/><linearGradient id="linear-gradient-14" x1="196.22" y1="83.44" x2="315.07" y2="83.44" xlink:href="#linear-gradient"/></defs><title>Asset 1</title><g class="cls-1"><g id="Layer_2" data-name="Layer 2"><g id="Layer_11" data-name="Layer 11"><ellipse class="cls-2" cx="259.19" cy="136.9" rx="105.62" ry="11.82"/><path class="cls-3" d="M268.69,54.07a1.25,1.25,0,1,0-.13,2.5c20.09,1,37.3,7.51,42.44,15.16.16-1.16.28-2.33.36-3.52C304.38,60.76,288.22,55.09,268.69,54.07Z"/><path class="cls-4" d="M158.44,108.71a28.25,28.25,0,0,1-4.21-.27.55.55,0,0,1,.19-1.09,38.24,38.24,0,0,0,20-3c13.92-6.08,23.52-20.25,27.77-41,3.23-15.71,11.56-36.52,32.93-46.49a54.65,54.65,0,0,1,24.47-5.16.55.55,0,0,1,.51.59.54.54,0,0,1-.59.51,53.4,53.4,0,0,0-24,5.08C224,23.33,209,35.64,203.28,63.62,194.88,104.54,168.73,108.71,158.44,108.71Z"/><path class="cls-5" d="M260.06,118.7A53.92,53.92,0,1,1,314,64.78,54,54,0,0,1,260.06,118.7Zm0-105.34a51.42,51.42,0,1,0,51.42,51.42A51.48,51.48,0,0,0,260.06,13.36Z"/><path class="cls-6" d="M228.64,62.79a.54.54,0,0,1-.21,0,.55.55,0,0,1-.3-.71c6.92-17.11,17.66-28.25,31.92-33.1,28.86-9.83,62.75,9.71,63.09,9.91a.55.55,0,0,1,.2.75.57.57,0,0,1-.76.2c-.33-.2-33.8-19.49-62.18-9.82C246.46,34.72,236,45.64,229.15,62.44A.55.55,0,0,1,228.64,62.79Z"/><rect class="cls-7" x="225.04" y="58.6" width="7.41" height="6.64" transform="translate(380.99 -119.68) rotate(114.83)"/><rect class="cls-8" x="298.48" y="67.89" width="3.86" height="3.46" transform="translate(491.33 -172.55) rotate(115.2)"/><rect class="cls-8" x="220.73" y="73.36" width="3.86" height="3.46" transform="translate(385.41 -94.4) rotate(115.2)"/><rect class="cls-8" x="270.95" y="19.16" width="3.59" height="3.22" transform="translate(172.5 -233.73) rotate(64.15)"/><rect class="cls-9" x="248.23" y="73.81" width="8.08" height="7.24" transform="translate(246.21 -186.39) rotate(71.62)"/><rect class="cls-9" x="226.02" y="27.77" width="9.01" height="3.65" transform="translate(60.28 187.82) rotate(-50.22)"/><rect class="cls-7" x="240.17" y="105.85" width="9.01" height="4.08" transform="translate(60.09 -85.59) rotate(22.55)"/><path class="cls-10" d="M264.71,127.14c-.68,0-1.35,0-2,0a.56.56,0,0,1-.55-.56.55.55,0,0,1,.58-.54c.67,0,1.33,0,2,0H265a.55.55,0,0,1,.56.55.56.56,0,0,1-.56.55Zm2.5,0a.56.56,0,0,1-.57-.53.55.55,0,0,1,.54-.57c.75,0,1.5-.07,2.24-.12a.55.55,0,0,1,.6.51.56.56,0,0,1-.52.59c-.76,0-1.51.09-2.27.12Zm-6.76-.09h0c-.75-.05-1.51-.11-2.26-.18a.56.56,0,0,1-.51-.6.57.57,0,0,1,.62-.5q1.11.1,2.22.18a.55.55,0,0,1,0,1.1Zm11.26-.23a.55.55,0,0,1-.06-1.09q1.11-.12,2.22-.27a.56.56,0,0,1,.64.47.55.55,0,0,1-.48.62c-.75.1-1.51.19-2.26.27Zm-15.75-.2h-.07c-.75-.09-1.5-.2-2.25-.32a.55.55,0,1,1,.19-1.09c.73.12,1.47.23,2.21.32a.55.55,0,0,1,.48.62A.56.56,0,0,1,256,126.58Zm20.21-.4a.57.57,0,0,1-.55-.46.55.55,0,0,1,.46-.64c.73-.12,1.47-.26,2.19-.41a.57.57,0,0,1,.67.43.55.55,0,0,1-.44.65c-.74.15-1.48.29-2.23.42Zm-24.65-.33h-.11q-1.11-.23-2.22-.48a.55.55,0,0,1-.42-.66.57.57,0,0,1,.68-.41c.73.17,1.46.33,2.18.47a.55.55,0,0,1,.44.65A.56.56,0,0,1,251.52,125.85Zm29.06-.58a.56.56,0,0,1-.54-.42.54.54,0,0,1,.41-.66l2.16-.56a.55.55,0,1,1,.3,1.06c-.72.2-1.45.39-2.19.56A.34.34,0,0,1,280.58,125.27Zm-33.44-.45-.15,0c-.73-.2-1.45-.41-2.18-.63a.54.54,0,0,1-.36-.69.56.56,0,0,1,.7-.36c.71.22,1.43.43,2.14.62a.54.54,0,0,1,.39.68A.56.56,0,0,1,247.14,124.82Zm37.78-.75a.57.57,0,0,1-.54-.38.56.56,0,0,1,.36-.7c.71-.22,1.42-.46,2.11-.71a.57.57,0,0,1,.72.33.55.55,0,0,1-.33.71c-.71.25-1.43.49-2.15.72Zm-42.07-.58a.63.63,0,0,1-.19,0c-.71-.25-1.42-.51-2.13-.79a.53.53,0,0,1-.31-.71.55.55,0,0,1,.73-.31c.69.27,1.39.53,2.09.77a.55.55,0,0,1,.34.7A.56.56,0,0,1,242.85,123.49Zm46.3-.93a.57.57,0,0,1-.53-.34.56.56,0,0,1,.31-.72c.7-.27,1.38-.56,2.05-.86a.57.57,0,0,1,.75.27.55.55,0,0,1-.28.73c-.69.31-1.39.6-2.09.88A.52.52,0,0,1,289.15,122.56Zm-50.49-.7a.59.59,0,0,1-.22,0c-.7-.3-1.38-.61-2.07-.94a.53.53,0,0,1-.25-.73.56.56,0,0,1,.75-.26c.67.32,1.34.63,2,.92a.55.55,0,0,1,.29.73A.59.59,0,0,1,238.66,121.86Zm54.59-1.11a.55.55,0,0,1-.25-1c.67-.32,1.32-.66,2-1a.58.58,0,0,1,.77.22.54.54,0,0,1-.22.74c-.67.36-1.34.71-2,1A.54.54,0,0,1,293.25,120.75Zm-58.63-.83a.63.63,0,0,1-.27-.06c-.67-.35-1.33-.71-2-1.09a.55.55,0,0,1-.21-.75.57.57,0,0,1,.77-.2c.65.37,1.3.72,1.95,1.07a.53.53,0,0,1,.23.74A.54.54,0,0,1,234.62,119.92Zm62.57-1.3a.56.56,0,0,1-.48-.26.55.55,0,0,1,.19-.76c.64-.38,1.26-.77,1.88-1.17a.57.57,0,0,1,.78.15.55.55,0,0,1-.16.77c-.62.41-1.26.8-1.91,1.19A.56.56,0,0,1,297.19,118.62Zm-66.46-.92a.59.59,0,0,1-.31-.09q-.94-.6-1.89-1.23a.54.54,0,0,1-.14-.77.56.56,0,0,1,.78-.13q.92.61,1.86,1.2a.54.54,0,0,1,.17.76A.56.56,0,0,1,230.73,117.7Zm70.21-1.52a.56.56,0,0,1-.46-.23.55.55,0,0,1,.12-.77c.6-.43,1.19-.87,1.77-1.33a.57.57,0,0,1,.79.09.54.54,0,0,1-.08.77c-.59.47-1.19.92-1.81,1.36A.59.59,0,0,1,300.94,116.18Zm-73.92-1a.59.59,0,0,1-.33-.11c-.61-.45-1.21-.9-1.8-1.37a.55.55,0,0,1-.08-.78.58.58,0,0,1,.79-.08c.58.46,1.17.91,1.76,1.35a.55.55,0,0,1,.12.77A.6.6,0,0,1,227,115.19Zm77.42-1.78a.58.58,0,0,1-.42-.18.54.54,0,0,1,.05-.78c.55-.48,1.1-1,1.62-1.48a.58.58,0,0,1,.8,0,.54.54,0,0,1,0,.78c-.54.52-1.09,1-1.66,1.52A.56.56,0,0,1,304.44,113.41Zm-80.92-1a.57.57,0,0,1-.36-.13l-1.73-1.4a.54.54,0,0,1-.08-.77.57.57,0,0,1,.79-.08l1.75,1.41a.55.55,0,0,1,.06.78A.56.56,0,0,1,223.52,112.41Zm84.14-2.08a.54.54,0,0,1-.38-.15.54.54,0,0,1,0-.78c.51-.53,1-1.08,1.46-1.64a.59.59,0,0,1,.8-.07.54.54,0,0,1,.07.78q-.72.86-1.5,1.68A.55.55,0,0,1,307.66,110.33Zm-87.64-.7a.6.6,0,0,1-.34-.11c-.59-.46-1.19-.9-1.79-1.34a.56.56,0,0,1-.11-.77.57.57,0,0,1,.79-.11q.92.66,1.8,1.35a.54.54,0,0,1,.1.77A.57.57,0,0,1,220,109.63Zm-3.6-2.65a.59.59,0,0,1-.33-.11l-1.82-1.28a.53.53,0,0,1-.14-.76.57.57,0,0,1,.78-.14l1.84,1.29a.55.55,0,0,1,.13.77A.58.58,0,0,1,216.42,107Zm94.11,0a.62.62,0,0,1-.34-.11.54.54,0,0,1-.11-.77c.44-.58.86-1.17,1.26-1.78a.59.59,0,0,1,.78-.16.54.54,0,0,1,.17.76c-.42.63-.86,1.24-1.31,1.84A.58.58,0,0,1,310.53,106.93Zm-97.79-2.49a.55.55,0,0,1-.32-.1c-.61-.41-1.23-.82-1.86-1.22a.54.54,0,0,1-.16-.76.59.59,0,0,1,.79-.16l1.87,1.23a.55.55,0,0,1,.15.77A.59.59,0,0,1,212.74,104.44ZM313,103.25a.58.58,0,0,1-.28-.07.56.56,0,0,1-.21-.76c.37-.62.72-1.26,1.05-1.9a.57.57,0,0,1,.76-.25.55.55,0,0,1,.25.74c-.34.66-.7,1.32-1.08,2A.55.55,0,0,1,313,103.25ZM209,102a.55.55,0,0,1-.3-.09l-1.9-1.17a.55.55,0,0,1-.18-.76.58.58,0,0,1,.78-.17L209.3,101a.55.55,0,0,1,.17.76A.58.58,0,0,1,209,102Zm-3.82-2.33a.67.67,0,0,1-.3-.08L203,98.47a.54.54,0,0,1-.2-.75.57.57,0,0,1,.77-.2c.65.37,1.29.75,1.94,1.14a.53.53,0,0,1,.19.75A.57.57,0,0,1,205.17,99.68ZM315,99.32a.59.59,0,0,1-.22,0,.54.54,0,0,1-.29-.72c.28-.66.55-1.33.8-2a.58.58,0,0,1,.72-.33.53.53,0,0,1,.34.7c-.25.71-.53,1.4-.83,2.08A.57.57,0,0,1,315,99.32ZM201.29,97.44a.57.57,0,0,1-.28-.08l-2-1.08a.55.55,0,0,1-.21-.75.56.56,0,0,1,.76-.21l2,1.09a.55.55,0,0,1,.21.75A.58.58,0,0,1,201.29,97.44Zm-3.93-2.16a.52.52,0,0,1-.27-.07l-2-1a.53.53,0,0,1-.23-.74.57.57,0,0,1,.76-.23l2,1a.54.54,0,0,1,.22.74A.54.54,0,0,1,197.36,95.28Zm119.16-.1-.16,0a.55.55,0,0,1-.38-.69c.2-.69.39-1.39.55-2.09a.56.56,0,0,1,.67-.42.55.55,0,0,1,.43.66q-.25,1.09-.57,2.16A.57.57,0,0,1,316.52,95.18Zm-123.14-2a.58.58,0,0,1-.26-.06c-.67-.35-1.34-.68-2-1a.55.55,0,0,1-.25-.74.57.57,0,0,1,.76-.24l2,1a.55.55,0,0,1,.24.74A.57.57,0,0,1,193.38,93.21Zm-4-2a.53.53,0,0,1-.25,0l-2-1a.54.54,0,0,1-.26-.74.57.57,0,0,1,.75-.25c.67.31,1.34.64,2,1a.54.54,0,0,1,.25.74A.55.55,0,0,1,189.36,91.21Zm128.15-.32h-.09a.55.55,0,0,1-.47-.63c.12-.71.22-1.42.3-2.15a.56.56,0,0,1,1.11.11q-.11,1.13-.3,2.22A.55.55,0,0,1,317.51,90.89ZM185.3,89.29a.52.52,0,0,1-.24-.05l-2-.93a.54.54,0,0,1-.27-.73.56.56,0,0,1,.74-.27c.67.3,1.36.61,2,.94a.54.54,0,0,1,.27.73A.56.56,0,0,1,185.3,89.29Zm-4.09-1.84a.69.69,0,0,1-.24,0l-2.05-.89a.54.54,0,0,1-.29-.73.56.56,0,0,1,.74-.28c.67.29,1.36.58,2.07.9a.54.54,0,0,1,.28.72A.55.55,0,0,1,181.21,87.45ZM318,86.51h0a.56.56,0,0,1-.54-.57l0-.81a.56.56,0,0,1,.56-.54h0a.56.56,0,0,1,.55.57l0,.83A.57.57,0,0,1,318,86.51Zm-140.89-.83a.54.54,0,0,1-.22-.05l-2.08-.86a.53.53,0,0,1-.3-.71.55.55,0,0,1,.73-.3l2.09.86a.54.54,0,0,1,.29.72A.56.56,0,0,1,177.08,85.68ZM172.91,84a.52.52,0,0,1-.21,0l-2.09-.82a.55.55,0,0,1-.32-.71.57.57,0,0,1,.73-.31l2.1.82a.54.54,0,0,1,.31.72A.57.57,0,0,1,172.91,84Zm-4.2-1.61a.48.48,0,0,1-.2,0c-1.36-.5-2.11-.75-2.11-.76a.54.54,0,0,1-.35-.7.58.58,0,0,1,.72-.34s.76.26,2.14.77a.55.55,0,0,1,.33.71A.57.57,0,0,1,168.71,82.37Z"/><rect class="cls-7" x="315.3" y="81.29" width="5.89" height="5.28" transform="translate(422.35 -228.29) rotate(93.67)"/><rect class="cls-9" x="319.91" y="36.67" width="5.89" height="5.28" transform="translate(518.34 -220.64) rotate(120)"/><path class="cls-11" d="M220.75,126.46a.55.55,0,0,1-.55-.54C219.75,94.83,229,71,247.63,55.13c36.95-31.46,99-21,99.67-20.86a.55.55,0,0,1-.19,1.09c-.62-.11-62.22-10.52-98.77,20.61-18.39,15.67-27.49,39.19-27,69.93a.55.55,0,0,1-.55.56Z"/><rect class="cls-7" x="266.21" y="52.47" width="6.33" height="5.68" transform="translate(341.8 -209.98) rotate(93.67)"/><path class="cls-12" d="M255.13,89.08a.61.61,0,0,1-.55-.33.62.62,0,0,1,.26-.84c.74-.39,1.47-.77,2.18-1.16a.62.62,0,1,1,.6,1.09L255.41,89A.58.58,0,0,1,255.13,89.08Zm4.36-2.37a.63.63,0,0,1-.54-.31.62.62,0,0,1,.24-.85l2.13-1.24a.62.62,0,1,1,.64,1.07l-2.16,1.25A.58.58,0,0,1,259.49,86.71Zm4.28-2.54a.62.62,0,0,1-.53-.29.63.63,0,0,1,.2-.86c.71-.44,1.4-.88,2.08-1.32a.62.62,0,0,1,.68,1c-.68.45-1.39.89-2.1,1.34A.68.68,0,0,1,263.77,84.17Zm4.16-2.71a.64.64,0,0,1-.52-.27.63.63,0,0,1,.16-.87c.69-.47,1.36-.95,2-1.42a.62.62,0,0,1,.87.14.61.61,0,0,1-.14.86c-.66.49-1.34,1-2,1.45A.66.66,0,0,1,267.93,81.46Zm4-2.92a.64.64,0,0,1-.5-.25.62.62,0,0,1,.12-.87c.66-.51,1.31-1,1.93-1.53a.64.64,0,0,1,.88.09.63.63,0,0,1-.09.88l-2,1.55A.62.62,0,0,1,272,78.54Zm3.85-3.14a.59.59,0,0,1-.47-.22.61.61,0,0,1,.06-.87q.94-.82,1.83-1.65a.62.62,0,0,1,.85.91c-.6.56-1.22,1.12-1.87,1.68A.6.6,0,0,1,275.8,75.4ZM279.43,72a.64.64,0,0,1-.44-.18.63.63,0,0,1,0-.88c.6-.59,1.16-1.18,1.71-1.77a.62.62,0,1,1,.91.85q-.83.9-1.74,1.8A.62.62,0,0,1,279.43,72Zm3.38-3.65a.62.62,0,0,1-.41-.14.63.63,0,0,1-.07-.88c.54-.63,1.06-1.27,1.55-1.91a.62.62,0,1,1,1,.77c-.5.65-1,1.3-1.58,2A.62.62,0,0,1,282.81,68.36Zm3-3.92a.66.66,0,0,1-.36-.11.63.63,0,0,1-.15-.87c.48-.68.93-1.36,1.36-2a.62.62,0,0,1,.85-.2.63.63,0,0,1,.2.86c-.44.7-.9,1.4-1.39,2.09A.61.61,0,0,1,285.85,64.44Zm2.63-4.21a.56.56,0,0,1-.3-.08.61.61,0,0,1-.24-.84c.4-.72.78-1.46,1.12-2.18a.62.62,0,0,1,1.12.54c-.35.74-.74,1.5-1.15,2.24A.65.65,0,0,1,288.48,60.23Zm2.14-4.48a.5.5,0,0,1-.23,0,.61.61,0,0,1-.34-.8c.3-.75.59-1.52.84-2.3a.63.63,0,0,1,.79-.39.62.62,0,0,1,.39.78c-.26.8-.56,1.6-.87,2.37A.63.63,0,0,1,290.62,55.75ZM292.19,51,292,51a.62.62,0,0,1-.44-.76c.2-.79.38-1.59.53-2.38a.62.62,0,0,1,.72-.5.63.63,0,0,1,.5.73c-.15.82-.34,1.65-.55,2.46A.63.63,0,0,1,292.19,51Zm.91-4.88H293a.6.6,0,0,1-.54-.68c.09-.81.16-1.63.2-2.44a.6.6,0,0,1,.65-.59.63.63,0,0,1,.59.65q-.06,1.26-.21,2.52A.63.63,0,0,1,293.1,46.16Zm-93.7-.34a.58.58,0,0,1-.28-.07.61.61,0,0,1-.26-.84l.82-1.55a.62.62,0,1,1,1.09.59L200,45.49A.64.64,0,0,1,199.4,45.82Zm2-3.73a.67.67,0,0,1-.3-.08.62.62,0,0,1-.24-.85L202.1,39a.62.62,0,0,1,1.08.62c-.44.76-.85,1.48-1.22,2.16A.65.65,0,0,1,201.41,42.09Zm91.93-.89a.61.61,0,0,1-.62-.61c0-.81-.07-1.63-.14-2.44a.62.62,0,0,1,1.24-.11c.07.84.12,1.69.14,2.52a.63.63,0,0,1-.61.64ZM203.9,37.77a.62.62,0,0,1-.53-.94c.42-.69.85-1.4,1.31-2.13a.63.63,0,0,1,.86-.2.62.62,0,0,1,.19.86c-.45.72-.88,1.43-1.29,2.11A.65.65,0,0,1,203.9,37.77Zm89-1.52a.63.63,0,0,1-.62-.52c-.12-.81-.27-1.62-.45-2.41a.63.63,0,0,1,.47-.74.62.62,0,0,1,.74.47c.18.82.34,1.65.47,2.48a.62.62,0,0,1-.52.71Zm-86.35-2.7a.59.59,0,0,1-.34-.1.62.62,0,0,1-.18-.86c.45-.68.91-1.38,1.39-2.08a.62.62,0,0,1,1,.7c-.48.7-.94,1.39-1.38,2.06A.63.63,0,0,1,206.55,33.55Zm85.27-2.15a.61.61,0,0,1-.59-.45c-.23-.77-.48-1.55-.75-2.33a.63.63,0,0,1,.38-.79.61.61,0,0,1,.79.38c.28.8.54,1.6.77,2.4a.62.62,0,0,1-.43.77Zm-82.46-2a.66.66,0,0,1-.36-.11.63.63,0,0,1-.15-.87c.48-.67,1-1.34,1.48-2a.62.62,0,1,1,1,.74c-.5.67-1,1.34-1.46,2A.61.61,0,0,1,209.36,29.44Zm80.81-2.73a.62.62,0,0,1-.57-.38c-.32-.76-.65-1.5-1-2.23a.62.62,0,0,1,1.12-.54c.36.75.71,1.51,1,2.29a.63.63,0,0,1-.34.82A.64.64,0,0,1,290.17,26.71Zm-77.83-1.25a.64.64,0,0,1-.39-.14.63.63,0,0,1-.1-.87c.51-.65,1-1.3,1.57-1.95a.62.62,0,0,1,.87-.09.63.63,0,0,1,.09.88c-.53.64-1,1.28-1.55,1.93A.66.66,0,0,1,212.34,25.46ZM288,22.24a.62.62,0,0,1-.54-.32c-.4-.73-.82-1.43-1.24-2.12a.62.62,0,1,1,1.06-.66c.43.71.86,1.43,1.27,2.18a.62.62,0,0,1-.25.84A.54.54,0,0,1,288,22.24Zm-72.51-.62a.61.61,0,0,1-.41-.16.63.63,0,0,1-.06-.87c.55-.63,1.1-1.25,1.67-1.87a.62.62,0,1,1,.92.84c-.56.61-1.11,1.22-1.65,1.84A.62.62,0,0,1,215.5,21.62ZM285.4,18a.62.62,0,0,1-.51-.26c-.48-.69-1-1.35-1.45-2a.62.62,0,1,1,1-.76c.51.66,1,1.34,1.49,2a.62.62,0,0,1-.16.86A.58.58,0,0,1,285.4,18ZM218.87,18a.64.64,0,0,1-.44-.18.62.62,0,0,1,0-.87c.58-.6,1.17-1.19,1.78-1.77a.62.62,0,1,1,.86.89c-.59.57-1.18,1.16-1.75,1.74A.59.59,0,0,1,218.87,18Zm3.57-3.46a.61.61,0,0,1-.46-.2.62.62,0,0,1,.05-.88q.93-.84,1.89-1.65a.62.62,0,0,1,.88.08.61.61,0,0,1-.08.87c-.63.53-1.25,1.08-1.86,1.62A.61.61,0,0,1,222.44,14.49Zm59.92-.42a.64.64,0,0,1-.47-.21c-.55-.64-1.1-1.25-1.64-1.82a.62.62,0,0,1,0-.88.61.61,0,0,1,.87,0c.57.59,1.13,1.21,1.7,1.87a.62.62,0,0,1-.07.87A.58.58,0,0,1,282.36,14.07Zm-56.1-2.78a.62.62,0,0,1-.38-1.11c.66-.51,1.33-1,2-1.5a.61.61,0,0,1,.86.14.62.62,0,0,1-.14.87q-1,.72-2,1.47A.58.58,0,0,1,226.26,11.29Zm52.66-.8a.63.63,0,0,1-.42-.17c-.61-.56-1.23-1.1-1.85-1.59a.62.62,0,0,1,.77-1c.65.51,1.29,1.07,1.92,1.65a.62.62,0,0,1,0,.88A.63.63,0,0,1,278.92,10.49ZM230.31,8.4a.63.63,0,0,1-.52-.28.62.62,0,0,1,.18-.86c.71-.46,1.42-.89,2.14-1.32A.63.63,0,0,1,232.74,7c-.71.41-1.4.84-2.09,1.28A.61.61,0,0,1,230.31,8.4Zm44.61-.84a.56.56,0,0,1-.3-.08q-1.1-.62-2.16-1.17a.62.62,0,0,1-.27-.84A.63.63,0,0,1,273,5.2c.74.38,1.47.78,2.21,1.2a.62.62,0,0,1,.24.85A.64.64,0,0,1,274.92,7.56ZM234.6,5.9a.61.61,0,0,1-.55-.34.61.61,0,0,1,.27-.83c.75-.39,1.5-.75,2.27-1.1a.62.62,0,1,1,.51,1.13c-.75.34-1.48.7-2.21,1.07A.59.59,0,0,1,234.6,5.9Zm35.91-.61a.58.58,0,0,1-.26,0c-.76-.35-1.51-.67-2.26-1a.63.63,0,0,1-.35-.81.62.62,0,0,1,.81-.34q1.16.45,2.31,1a.62.62,0,0,1-.25,1.18ZM239.14,3.86a.62.62,0,0,1-.23-1.2c.79-.3,1.59-.58,2.38-.84a.64.64,0,0,1,.79.41.63.63,0,0,1-.41.78c-.77.24-1.55.51-2.31.81A.57.57,0,0,1,239.14,3.86Zm26.75-.41a.69.69,0,0,1-.2,0q-1.19-.41-2.34-.72a.62.62,0,0,1-.43-.77.62.62,0,0,1,.76-.43c.8.22,1.6.47,2.41.74a.63.63,0,0,1,.39.79A.62.62,0,0,1,265.89,3.45Zm-22-1.09a.62.62,0,0,1-.15-1.22c.81-.21,1.64-.39,2.47-.54a.64.64,0,0,1,.72.5.63.63,0,0,1-.5.73c-.8.14-1.6.32-2.39.51Zm17.23-.24H261c-.8-.17-1.61-.32-2.4-.44A.63.63,0,0,1,258,1a.64.64,0,0,1,.71-.52c.82.12,1.65.28,2.48.46a.62.62,0,0,1-.13,1.22Zm-12.35-.64a.62.62,0,0,1-.61-.56.61.61,0,0,1,.54-.68c.84-.1,1.69-.17,2.52-.2a.63.63,0,0,1,.65.59.63.63,0,0,1-.59.65c-.81,0-1.63.1-2.44.19Zm7.44-.1h-.05c-.82-.07-1.64-.12-2.44-.13a.63.63,0,0,1-.61-.64.61.61,0,0,1,.63-.61c.83,0,1.68.07,2.53.14a.62.62,0,0,1-.06,1.24Z"/><rect class="cls-7" x="196.99" y="42.84" width="5.25" height="4.7" transform="translate(324.45 -116.99) rotate(114.83)"/><path class="cls-13" d="M253.22,19.22c-6.33,8.59-12,25.07-2.94,54.76a.63.63,0,0,0,1.21-.36c-8.89-29.2-3.42-45.3,2.74-53.66a28.22,28.22,0,0,1,6.8-6.59c-.72,0-1.43,0-2.15,0A29.16,29.16,0,0,0,253.22,19.22Z"/><path class="cls-14" d="M288.57,30.55C285,16.3,278.65,8.77,270.28,8.76a17.33,17.33,0,0,0-7.62,2.18c.86,0,1.72.11,2.58.19a14.28,14.28,0,0,1,5-1.11C280,10,285,21.36,287.35,30.86c7.07,28,1.3,76.58-9.8,82.58a.64.64,0,0,0-.25.86.62.62,0,0,0,.55.33.61.61,0,0,0,.3-.08C289.87,108.22,295.9,59.54,288.57,30.55Z"/><path class="cls-7" d="M135.66,216.68a16.4,16.4,0,0,0,7.06,1.9c3.76,0,6.53-2.11,6.53-5.2,0-7.48-13.42-5.33-13.42-14.58,0-5.2,4.29-7.51,8.17-7.51a16.7,16.7,0,0,1,6.69,1.48l-.82,2.23a14.72,14.72,0,0,0-5.87-1.32c-3.59,0-5.61,2.11-5.61,5.12,0,7.06,13.42,5.41,13.42,14.58,0,4.62-3.92,7.6-9.09,7.6a17.24,17.24,0,0,1-7.8-2.07Z"/><path class="cls-7" d="M155.07,210.24c0-5.9,4.25-10.78,10.24-10.78s10.24,4.88,10.24,10.78S171.3,221,165.31,221,155.07,216.14,155.07,210.24Zm18,0c0-4.62-3-8.46-7.76-8.46s-7.76,3.84-7.76,8.46,3.1,8.42,7.76,8.42S173.07,214.86,173.07,210.24Z"/><path class="cls-7" d="M196.12,219.53A15.58,15.58,0,0,1,189.3,221c-6.6,0-10.49-4.88-10.49-10.78s3.89-10.74,10.49-10.74a17.59,17.59,0,0,1,6.86,1.41l-.75,2.14a16.37,16.37,0,0,0-6.11-1.23c-5.28,0-8.09,4-8.09,8.42s2.81,8.46,8,8.46a16.64,16.64,0,0,0,6.07-1.36Z"/><path class="cls-7" d="M202.27,191.49a1.68,1.68,0,0,1,1.73,1.66,1.7,1.7,0,0,1-1.73,1.69,1.66,1.66,0,0,1-1.74-1.69A1.64,1.64,0,0,1,202.27,191.49Zm-1.2,8.51h2.4v20.44h-2.4Z"/><path class="cls-7" d="M225.52,219.74A16.5,16.5,0,0,1,219,221c-6.32,0-10.2-4.84-10.2-10.74s3.88-10.78,9.5-10.78c6.4,0,9,5,9,10.66H211.19c0,4.83,2.85,8.54,7.8,8.54a16.46,16.46,0,0,0,6.07-1.24Zm-.71-11.69c-.57-4.33-3.05-6.27-6.52-6.27-3.22,0-6.11,2-6.9,6.27Z"/><path class="cls-7" d="M233.11,202.06h-2.93V200h2.93v-5.2l2.4-1.08V200h5.08v2.06h-5.08v12.39c0,2.73,1.16,4.21,3.8,4.21a7.94,7.94,0,0,0,2.39-.37l.5,2.23a11.47,11.47,0,0,1-3.1.46c-3.43,0-6-2.11-6-6.28Z"/><path class="cls-7" d="M247.36,227.71c1.53,0,2.64-.91,3.35-3.06l1.36-4.21h-.83L244.06,200h2.52l5.2,15.07c.29.87.7,2.23,1,3.39.29-1.16.7-2.48,1-3.39L258.67,200h2.52l-8.38,25.72c-.95,2.94-3.06,4.3-5.45,4.3a8.82,8.82,0,0,1-3.8-.79l.7-2.18A7.72,7.72,0,0,0,247.36,227.71Z"/><path class="cls-7" d="M12.57,69.7H7.82c-1.1,0-5.56.18-5.56.18L2,69.53c.18-5.39.29-10.71.29-16.1v-4c0-6.71-.06-13.49-.52-20.2L2,28.83H6c1.91,0,5.27-.12,6.49-.17l.23.34c-.17,7.94-.29,15.92-.29,23.91,0,5.5.12,11,.41,16.44Z"/><path class="cls-7" d="M47.94,62.29c-.18,2.38-.29,4.86-.41,7.06l-.46.35c-8.45,0-17,.06-25.47.12l-.29-.41c.23-5.32.29-10.65.29-16v-12c0-4.11-.06-8.16-.41-12.21l.35-.35c6.31,0,21.59-.12,25.41-.12l.29.35c-.17,2.38-.35,4.46-.4,6.72l-.35.34c-5-.11-9.9-.17-14.82-.17,0,1.1-.06,2.66-.06,4.28,0,1.86,0,3.71.06,4.93,4.69,0,9.32-.06,13.95-.24l.35.41c-.18,2.2-.29,4.34-.41,6.54l-.34.35c-8.51-.06-13.55-.06-13.55-.06,0,3.42.06,6.77.12,10.13,5.32,0,10.59-.11,15.86-.4Z"/><path class="cls-7" d="M80.47,62.29c-.17,2.38-.29,4.86-.4,7.06l-.47.35c-8.45,0-17,.06-25.47.12l-.29-.41c.23-5.32.29-10.65.29-16v-12c0-4.11-.06-8.16-.4-12.21l.34-.35c6.31,0,21.6-.12,25.42-.12l.29.35c-.18,2.38-.35,4.46-.41,6.72l-.35.34C74,36,69.12,36,64.2,36c0,1.1,0,2.66,0,4.28,0,1.86,0,3.71,0,4.93,4.69,0,9.32-.06,14-.24l.34.41c-.17,2.2-.29,4.34-.4,6.54l-.35.35c-8.51-.06-13.55-.06-13.55-.06,0,3.42.06,6.77.12,10.13,5.33,0,10.59-.11,15.86-.4Z"/><path class="cls-7" d="M113,62.29c-.18,2.38-.29,4.86-.41,7.06l-.46.35c-8.45,0-17,.06-25.47.12l-.29-.41c.23-5.32.29-10.65.29-16v-12c0-4.11-.06-8.16-.41-12.21l.35-.35c6.31,0,21.59-.12,25.41-.12l.29.35c-.17,2.38-.35,4.46-.4,6.72l-.35.34c-5-.11-9.9-.17-14.82-.17,0,1.1-.06,2.66-.06,4.28,0,1.86,0,3.71.06,4.93,4.69,0,9.32-.06,14-.24l.35.41c-.18,2.2-.29,4.34-.41,6.54l-.34.35c-8.51-.06-13.55-.06-13.55-.06,0,3.42.06,6.77.11,10.13,5.33,0,10.6-.11,15.87-.4Z"/><path class="cls-9" d="M2.2,116.85a26.63,26.63,0,0,0,11.88,3.09c4.74,0,7.69-2.54,7.69-6.32,0-9.41-20.4-7.21-20.4-22.74,0-8.37,7-13.25,15-13.25a29.26,29.26,0,0,1,12.08,2.82L26.1,86.9a25.2,25.2,0,0,0-9.75-2.2c-4.4,0-6.6,2.55-6.6,6.18,0,9,20.4,7.63,20.4,22.74,0,8.1-7.07,13.39-16.07,13.39A30.43,30.43,0,0,1,0,123.44Z"/><path class="cls-9" d="M39.42,76.32a4.54,4.54,0,1,1,0,9.07,4.54,4.54,0,1,1,0-9.07ZM35.57,91.43h7.7v34.69h-7.7Z"/><path class="cls-9" d="M54.73,132.92a24.27,24.27,0,0,0,10.37,2.33c6.46,0,9.69-4.32,9.69-10.37v-3.23a13.11,13.11,0,0,1-10.24,4.47c-10,0-16.2-8.38-16.2-17.79s6.25-17.79,16.2-17.79a13.26,13.26,0,0,1,10.51,4.74l.41-3.85,7,.69v33.59c0,9.61-7.14,16.34-17.38,16.34a26.92,26.92,0,0,1-12.7-3Zm20.54-24.59c0-6.66-4.33-11-9.82-11-5.7,0-9.14,4.74-9.14,11s3.3,11,9.14,11C70.6,119.32,75.27,115.4,75.27,108.33Z"/><path class="cls-9" d="M89.14,92.12l6.59-.69.69,4.47c2.47-3.57,6.25-5.36,11-5.36,6.93,0,11.47,5.08,11.47,13.26v22.32h-7.7V104.83c0-4.33-1.58-7.49-5.35-7.49-5.57,0-9,4.74-9,12.78v16H89.14Z"/><path class="cls-9" d="M150.4,122a13.12,13.12,0,0,1-10.58,5c-10,0-16.21-8.79-16.21-18.27s6.46-18.2,16.21-18.2a13.38,13.38,0,0,1,10.23,4.53V91.43l7.7.69v34h-6.67Zm.13-13.33c0-6.8-4.32-11.33-9.82-11.33s-9.13,5-9.13,11.4c0,6.11,3.3,11.47,9.13,11.47C145.86,120.21,150.53,116,150.53,108.67Z"/><path class="cls-9" d="M164.34,76.87,172,75.23v42c0,2.13.75,3,2.75,3l-.76,6.66c-5.84,0-9.68-2.13-9.68-8.72Z"/><path class="cls-9" d="M2.54,135H16.35c9.34,0,16.14,5.29,16.14,14.7S25.55,164.5,16.28,164.5H10.51v18.13h-8Zm13,22.6c6.8,0,8.93-3.16,8.93-7.9S21.91,142,15.73,142H10.51v15.59Z"/><path class="cls-9" d="M37.15,148.63l6.6-.68.82,4.94a12.42,12.42,0,0,1,11.13-5.84v6.8c-7,0-10.86,5.5-10.86,13.4v15.38H37.15Z"/><path class="cls-9" d="M57.14,165.32c0-9.82,7.28-18.27,17.85-18.27s17.86,8.45,17.86,18.27-7.14,18.2-17.86,18.2S57.14,175.14,57.14,165.32Zm27.74,0c0-6.8-4.46-11.47-9.89-11.47s-9.89,4.67-9.89,11.47,4.4,11.4,9.89,11.4S84.88,172.05,84.88,165.32Z"/><path class="cls-9" d="M126.57,181.05a26.1,26.1,0,0,1-11.75,2.47c-11.47,0-18.4-8.38-18.4-18.27s6.87-18.2,18.4-18.2a29.62,29.62,0,0,1,11.89,2.61l-2.2,6.18a26.26,26.26,0,0,0-9.55-2c-6.73,0-10.58,5.29-10.58,11.4s3.85,11.47,10.58,11.47a25.19,25.19,0,0,0,9.55-2.13Z"/><path class="cls-9" d="M159.6,181.05a28.13,28.13,0,0,1-11.88,2.47c-11.61,0-18.13-8.24-18.13-18.2s6.18-18.27,16.34-18.27c10.65,0,15.94,8.25,15.94,19.51H137.28c.48,5.56,3.57,10.16,10.64,10.16a25.83,25.83,0,0,0,10.17-2.19Zm-5.49-19.78c-1.1-6-4.47-7.42-8.18-7.42s-7.21,1.93-8.38,7.42Z"/><path class="cls-9" d="M166.05,174.39c3,1.37,5.77,2.4,8.73,2.4s4.73-1.58,4.73-3.78c0-5.7-14.28-4.39-14.28-15.79,0-6.32,5.36-10.17,11.54-10.17a23,23,0,0,1,9.61,2.27l-2.2,6.11a16.49,16.49,0,0,0-6.86-1.65c-2.89,0-4.12,1.38-4.12,3.44,0,5.42,14.28,4.94,14.28,15.93,0,6.18-5.56,10.37-12.43,10.37a23,23,0,0,1-10.85-2.74Z"/><path class="cls-9" d="M191.39,174.39c3,1.37,5.77,2.4,8.73,2.4s4.73-1.58,4.73-3.78c0-5.7-14.28-4.39-14.28-15.79,0-6.32,5.36-10.17,11.54-10.17a23,23,0,0,1,9.61,2.27l-2.2,6.11a16.49,16.49,0,0,0-6.86-1.65c-2.89,0-4.12,1.38-4.12,3.44,0,5.42,14.28,4.94,14.28,15.93,0,6.18-5.56,10.37-12.43,10.37a23,23,0,0,1-10.85-2.74Z"/><path class="cls-9" d="M221.13,132.84a4.53,4.53,0,1,1,0,9.06,4.53,4.53,0,1,1,0-9.06ZM217.28,148H225v34.68h-7.69Z"/><path class="cls-9" d="M231.57,148.63l6.59-.68.69,4.46c2.47-3.57,6.25-5.36,11-5.36,6.94,0,11.47,5.09,11.47,13.26v22.32h-7.69V161.34c0-4.33-1.58-7.49-5.36-7.49-5.56,0-9,4.74-9,12.78v16h-7.69Z"/><path class="cls-9" d="M272.43,189.43a24.24,24.24,0,0,0,10.37,2.33c6.45,0,9.68-4.32,9.68-10.37v-3.22a13.11,13.11,0,0,1-10.23,4.46c-10,0-16.21-8.38-16.21-17.79s6.25-17.79,16.21-17.79a13.29,13.29,0,0,1,10.51,4.74l.41-3.84,7,.68v33.59c0,9.61-7.14,16.34-17.37,16.34a27,27,0,0,1-12.71-3ZM293,164.84c0-6.66-4.32-11-9.82-11-5.7,0-9.13,4.74-9.13,11s3.29,11,9.13,11C288.29,175.83,293,171.92,293,164.84Z"/><path class="cls-15" d="M272.49,94.88q-2.92,0-5.91-.15c-18-.94-39.94-5.84-56.14-16.49a51.4,51.4,0,0,0,95.36,10,41.37,41.37,0,0,1-5.8,2.53C292.39,93.46,282.78,94.88,272.49,94.88Z"/><path class="cls-15" d="M312.49,77.34c-.1.44-.21.87-.32,1.3A6.67,6.67,0,0,0,312.49,77.34Z"/><path class="cls-15" d="M268.56,56.57a1.25,1.25,0,1,1,.13-2.5c19.53,1,35.69,6.69,42.67,14.14.07-1.14.12-2.28.12-3.43A51.42,51.42,0,1,0,209.6,74.64c15.9,11.42,38.61,16.63,57.11,17.59,12.17.63,23.7-.73,32.46-3.82a33.12,33.12,0,0,0,8.54-4.32A50.74,50.74,0,0,0,311,71.73C305.86,64.08,288.65,57.61,268.56,56.57Z"/><path class="cls-16" d="M315.06,76.86a10.21,10.21,0,0,0-1.47-5.67,54.14,54.14,0,0,1-1.1,6.15,6.67,6.67,0,0,1-.32,1.3,53,53,0,0,1-2.4,7C313.06,83.08,314.89,80.08,315.06,76.86Z"/><path class="cls-17" d="M198.46,64a1.25,1.25,0,0,0-2,1.52,54.8,54.8,0,0,0,10.87,10.51c-.26-1.21-.47-2.42-.65-3.65A50.52,50.52,0,0,1,198.46,64Z"/><path class="cls-18" d="M266.71,92.23c-18.5-1-41.21-6.17-57.11-17.59q.36,1.83.84,3.6c16.2,10.65,38.13,15.55,56.14,16.49q3,.15,5.91.15c10.29,0,19.9-1.42,27.51-4.12a41.37,41.37,0,0,0,5.8-2.53c.7-1.35,1.33-2.73,1.91-4.14a33.12,33.12,0,0,1-8.54,4.32C290.41,91.5,278.88,92.86,266.71,92.23Z"/><path class="cls-19" d="M209.6,74.64q-1.5-1.08-2.91-2.22c.18,1.23.39,2.44.65,3.65,1,.74,2,1.47,3.1,2.17Q210,76.47,209.6,74.64Z"/><path class="cls-20" d="M307.71,84.09c-.58,1.41-1.21,2.79-1.91,4.14a27.72,27.72,0,0,0,4-2.55,53,53,0,0,0,2.4-7A12.06,12.06,0,0,1,307.71,84.09Z"/><path class="cls-7" d="M265,200.42h-1.12v-.62h2.93v.62h-1.12V204H265Z"/><path class="cls-7" d="M267.55,199.8h.8l.79,2.68c.06.21.14.52.2.8.06-.28.14-.59.2-.8l.8-2.68h.79l.6,4.16H271l-.33-2.39c0-.2,0-.47-.06-.73-.07.26-.15.53-.2.73l-.72,2.35H269l-.72-2.35c-.06-.2-.14-.47-.2-.73,0,.26,0,.53-.06.73l-.33,2.39H267Z"/></g></g></g></svg>